<svg width="62" height="65" viewBox="0 0 62 65" fill="none" xmlns="http://www.w3.org/2000/svg">
<path d="M44.8584 54.9156C44.614 54.8168 44.3488 54.7596 44.0681 54.7596C43.7873 54.7596 43.5222 54.8168 43.2778 54.9156C43.0335 55.0196 42.8099 55.1651 42.6279 55.3523L42.6123 55.3627C42.5083 55.4667 42.4096 55.5863 42.3316 55.7162C42.29 55.7838 42.2484 55.8566 42.212 55.9346H38.9313V53.0855C38.427 53.3194 37.9019 53.4962 37.3664 53.6054C37.2728 53.6262 37.1844 53.6418 37.0908 53.6574V56.8497C37.0908 57.1044 37.1948 57.3332 37.3612 57.4996C37.5275 57.6659 37.7563 57.7699 38.0111 57.7699H42.2432C42.2744 57.8323 42.3108 57.8947 42.3524 57.9571C42.4252 58.0663 42.5083 58.1703 42.6019 58.2638L42.6175 58.2794C42.8047 58.4666 43.0335 58.6226 43.2882 58.7266C43.5326 58.8253 43.7977 58.8825 44.0785 58.8825C44.3488 58.8825 44.614 58.8305 44.8532 58.7318L44.8688 58.7266C45.1235 58.6226 45.3471 58.4666 45.5395 58.2794C45.7266 58.0923 45.8826 57.8635 45.9866 57.6087C46.0854 57.3644 46.1426 57.0992 46.1426 56.8185C46.1426 56.5429 46.0854 56.2778 45.9866 56.0282C45.8826 55.7734 45.7266 55.5447 45.5395 55.3575C45.3419 55.1755 45.1131 55.0196 44.8584 54.9156ZM29.8588 35.4187H26.0114L25.4603 37.228H21.9977L26.131 26.2474H29.8432L33.9609 37.228H30.4099L29.8588 35.4187ZM29.1413 33.0375L27.9403 29.0913L26.7341 33.0375H29.1413ZM34.9176 26.2422H38.323V37.2228H34.9176V26.2422ZM32.3232 14.986C31.7617 15.3916 31.2418 15.9375 30.7894 16.6446C30.7686 16.6809 30.7374 16.7121 30.701 16.7329C30.5607 16.8213 30.3735 16.7797 30.2851 16.6446C29.8328 15.9375 29.3129 15.3916 28.7514 14.986C28.1483 14.5493 27.4984 14.2737 26.8277 14.1386H26.8173C26.1622 14.0034 25.4915 14.0034 24.8468 14.1178C24.1657 14.2373 23.5054 14.4869 22.9127 14.83C22.3252 15.1732 21.7949 15.6151 21.353 16.1246C20.9266 16.6186 20.5835 17.1853 20.3599 17.7936C20.3235 17.8871 20.2923 17.9859 20.2611 18.0899C20.2351 18.1835 20.2039 18.2875 20.1831 18.3915C20.1571 18.5266 20.0428 18.6254 19.8972 18.6306C19.2005 18.7346 18.509 18.9894 17.8643 19.3689C17.2092 19.7589 16.6009 20.2892 16.0758 20.9235C15.5559 21.5578 15.1192 22.3064 14.8072 23.1383C14.5161 23.9182 14.3393 24.776 14.3029 25.6859C14.2977 25.8055 14.2977 25.9199 14.2977 26.0394C14.2977 26.1486 14.3029 26.263 14.3029 26.3826C14.3081 26.4814 14.2665 26.5853 14.1781 26.6477C13.7518 26.9545 13.367 27.2716 13.0239 27.5992C12.6756 27.9371 12.3688 28.2855 12.1036 28.6442C11.6721 29.2317 11.355 29.8452 11.1418 30.4639C10.9182 31.1086 10.8091 31.7689 10.7987 32.4188C10.7935 33.0427 10.8766 33.6614 11.0534 34.2593C11.2302 34.8676 11.5005 35.4603 11.8489 36.0114C12.0465 36.3286 12.27 36.6405 12.5144 36.9317C12.7639 37.228 13.0343 37.5088 13.3254 37.7739C13.3982 37.8415 13.4398 37.9507 13.419 38.0547C13.3358 38.4498 13.2943 38.8398 13.2787 39.2245C13.2683 39.6196 13.2891 40.0096 13.341 40.3891C13.4398 41.0858 13.6426 41.7513 13.9286 42.3648C14.2301 43.0199 14.6252 43.6178 15.0828 44.1429C15.5247 44.6576 16.029 45.1048 16.5697 45.4739C17.1156 45.8482 17.6927 46.1394 18.2854 46.3422C18.5506 46.4305 18.821 46.5033 19.0965 46.5553C19.3565 46.6073 19.6164 46.6385 19.8712 46.6489C20.0116 46.6437 20.1416 46.7425 20.1727 46.8881C20.3079 47.5068 20.5575 48.0891 20.9006 48.6142C21.2594 49.1653 21.7117 49.654 22.2316 50.0596C22.8867 50.5691 23.6562 50.9538 24.4673 51.1566C25.2315 51.3489 26.0374 51.3853 26.8277 51.219C27.5348 51.0734 28.221 50.7718 28.8553 50.2935C29.4377 49.8516 29.9784 49.2589 30.4307 48.4894C30.4567 48.4426 30.4983 48.4062 30.5503 48.3802C30.6958 48.3022 30.8778 48.3594 30.9558 48.505C31.3301 49.2017 31.7877 49.758 32.2972 50.1791C32.8483 50.6315 33.4566 50.9382 34.0961 51.115C34.9124 51.3386 35.765 51.3386 36.5917 51.167C37.4756 50.985 38.3282 50.6003 39.0613 50.07C39.6384 49.6592 40.1479 49.1549 40.5535 48.583C40.9382 48.0475 41.2241 47.4496 41.3905 46.8205C41.4113 46.7009 41.5049 46.5969 41.6349 46.5761C42.3992 46.4409 43.153 46.1238 43.8445 45.6507C44.536 45.1775 45.1651 44.5536 45.6798 43.8102C46.153 43.1239 46.5325 42.3336 46.7769 41.4705C47.0056 40.6647 47.1148 39.7912 47.0784 38.871C47.068 38.767 47.1148 38.663 47.2084 38.6006C47.6555 38.2939 48.0506 37.9715 48.4042 37.644C48.7629 37.3008 49.0801 36.9473 49.3504 36.5781C49.7664 36.0166 50.0731 35.4343 50.2863 34.8364C50.5047 34.2177 50.619 33.5886 50.6398 32.9595C50.6554 32.3512 50.5826 31.7481 50.4267 31.1554C50.2707 30.5575 50.0263 29.9804 49.7092 29.4345L49.6988 29.4241C49.4908 29.0653 49.2465 28.7222 48.9761 28.3895C48.7057 28.0567 48.399 27.7448 48.0714 27.4484C47.9935 27.3808 47.9519 27.2716 47.9727 27.1625C48.0454 26.8037 48.0922 26.445 48.1078 26.0914C48.1234 25.7327 48.113 25.3791 48.0766 25.0308C47.9987 24.3081 47.8063 23.6218 47.5255 22.9823C47.2292 22.3064 46.834 21.6825 46.3713 21.1366C45.9242 20.6063 45.4095 20.1436 44.8584 19.7589C44.3073 19.3741 43.7197 19.0726 43.1218 18.8698L43.1062 18.8646C42.7891 18.7554 42.4667 18.6774 42.1496 18.6254H42.1392C41.8273 18.5734 41.5153 18.5526 41.2086 18.5578C41.0682 18.5682 40.933 18.4747 40.8966 18.3291C40.8446 18.1159 40.777 17.9079 40.699 17.7052C40.6158 17.4972 40.5223 17.2944 40.4131 17.0917C40.1323 16.5718 39.7632 16.0934 39.3317 15.6827C38.8897 15.2616 38.3854 14.9028 37.8447 14.6273C37.2884 14.3465 36.6801 14.149 36.0562 14.0606C35.4635 13.9774 34.8552 13.9878 34.2573 14.1126C33.5866 14.2737 32.9263 14.5493 32.3232 14.986ZM40.8238 20.8403C40.8602 20.7259 40.9642 20.6375 41.0942 20.6271C41.3125 20.6115 41.5361 20.6219 41.7597 20.6583C41.9884 20.6947 42.2172 20.7519 42.446 20.8299C42.8775 20.9755 43.309 21.199 43.7093 21.4798C44.1045 21.7553 44.4788 22.0933 44.8012 22.478L44.8064 22.4884C45.1443 22.8887 45.4303 23.3359 45.6434 23.8246C45.8462 24.2821 45.9814 24.7708 46.0386 25.2856C46.075 25.6287 46.075 25.9874 46.0334 26.3514C45.997 26.6893 45.919 27.0377 45.7994 27.386L45.7942 27.4068C45.7214 27.6252 45.7266 27.8539 45.7942 28.0567C45.867 28.2647 46.0022 28.4518 46.1945 28.5766L46.2101 28.587C46.5741 28.8574 46.8964 29.1537 47.1772 29.4657C47.4683 29.7828 47.7179 30.126 47.9259 30.4795C48.1546 30.8695 48.3314 31.275 48.4406 31.6909C48.555 32.1017 48.607 32.5176 48.5914 32.9283C48.581 33.3547 48.4978 33.781 48.347 34.2021C48.2014 34.6025 47.9883 34.9976 47.7075 35.3823L47.7023 35.3875C47.4475 35.7359 47.1252 36.079 46.7457 36.4066C46.3817 36.7185 45.9606 37.0149 45.4771 37.3008L45.4615 37.3112C45.2691 37.4204 45.1287 37.5868 45.0455 37.7791C44.9623 37.9715 44.9364 38.1847 44.9779 38.3926L44.9831 38.4342C45.0819 39.2297 45.0351 39.9888 44.874 40.6803C44.6972 41.4342 44.3904 42.11 43.9901 42.6871C43.6834 43.1291 43.3298 43.5086 42.9503 43.8102C42.5603 44.1221 42.1392 44.3509 41.7077 44.4913H41.7025C41.5465 44.538 41.3749 44.4497 41.3281 44.2937C40.7406 42.3752 39.7268 41.7565 38.0111 40.8726L37.9747 40.8518C37.7355 40.7375 37.4756 40.7271 37.2416 40.7999C37.0076 40.8726 36.8049 41.0338 36.6853 41.2678L36.6697 41.299C36.5553 41.5381 36.5449 41.7981 36.6177 42.0321C36.6957 42.266 36.8621 42.474 37.1012 42.5988C38.5362 43.3318 39.5968 43.8882 39.5812 45.6871C39.576 46.2226 39.4096 46.7425 39.1289 47.2104C38.8325 47.7043 38.4062 48.1463 37.9123 48.505C37.408 48.8689 36.8413 49.1341 36.2589 49.2641C35.7026 49.3941 35.1307 49.3993 34.5952 49.2537C33.6906 49.0041 33.1031 48.401 32.7079 47.6679C32.3336 46.9713 32.1256 46.1602 31.9748 45.4219C31.9644 45.3959 31.9644 45.3647 31.9644 45.3387C31.9644 44.9644 31.6733 44.72 31.2938 44.6108C31.1274 44.5588 30.9454 44.5381 30.7686 44.5381C30.5867 44.5381 30.4099 44.564 30.2435 44.6108C29.8692 44.7252 29.578 44.9696 29.578 45.3387C29.578 45.3647 29.5728 45.3855 29.5676 45.4115C29.2765 46.5657 28.8553 47.434 28.3614 48.0579C27.7843 48.791 27.1084 49.1913 26.4117 49.3369C25.9022 49.4409 25.3771 49.4149 24.878 49.2849C24.3529 49.1445 23.8538 48.8897 23.417 48.557C22.9855 48.2191 22.6267 47.8083 22.3772 47.3456C22.138 46.9037 21.9977 46.4149 21.9977 45.9158C21.9977 44.0233 23.1415 43.389 24.6544 42.6144C24.8936 42.4896 25.06 42.2816 25.1379 42.0477C25.2159 41.8085 25.2003 41.5433 25.0808 41.299C24.956 41.0598 24.748 40.8934 24.514 40.8154C24.2801 40.7427 24.0201 40.7531 23.781 40.8674L23.7654 40.8726C21.9821 41.7825 20.9162 42.448 20.2767 44.4289C20.2403 44.5588 20.1156 44.6576 19.9752 44.6524C19.7984 44.6472 19.6216 44.6264 19.4397 44.59C19.2629 44.5536 19.0861 44.5069 18.9197 44.4445C18.4986 44.2989 18.0775 44.0857 17.6823 43.8154C17.2924 43.545 16.9285 43.2227 16.6061 42.8483C16.2734 42.4636 15.9874 42.0321 15.7691 41.5589C15.5611 41.117 15.4155 40.6439 15.3427 40.15V40.1396C15.2907 39.7756 15.2803 39.3961 15.3219 39.0061C15.3583 38.6422 15.4363 38.2627 15.5663 37.8883L15.5715 37.8727C15.6443 37.6596 15.6391 37.436 15.5767 37.2384L15.5715 37.228C15.5039 37.0201 15.3687 36.8381 15.1816 36.7081L15.1712 36.6977C14.8384 36.4482 14.5369 36.183 14.2717 35.8918C14.0013 35.6007 13.7622 35.2887 13.5646 34.9664C13.3254 34.5765 13.1383 34.1605 13.0135 33.7342C12.8939 33.3183 12.8315 32.8919 12.8367 32.4552C12.8419 32.0133 12.9199 31.5609 13.0759 31.119C13.2267 30.6979 13.445 30.2768 13.7466 29.866C14.0013 29.5177 14.3133 29.1745 14.6876 28.847C15.0464 28.5298 15.4519 28.2283 15.9198 27.9423C16.0914 27.8383 16.2162 27.6928 16.2994 27.5264L16.3046 27.5108C16.3878 27.3392 16.419 27.1469 16.393 26.9545C16.3878 26.9337 16.3878 26.9129 16.3878 26.8921V26.8817C16.3618 26.6997 16.3462 26.5178 16.3358 26.341C16.3254 26.1486 16.3254 25.9562 16.3306 25.7691C16.3566 25.088 16.4865 24.4485 16.6997 23.8714C16.9285 23.2527 17.2508 22.6964 17.6356 22.2233C17.9527 21.8333 18.3166 21.5058 18.6962 21.251C19.0757 20.9962 19.4761 20.8143 19.8868 20.7103C20.0428 20.6635 20.2143 20.7519 20.2611 20.9079C20.5835 21.9269 20.989 22.5664 21.7637 23.2891L21.7949 23.3151C21.9873 23.4918 22.2368 23.575 22.4812 23.5646C22.7255 23.5542 22.9647 23.4555 23.1415 23.2631L23.1571 23.2423C23.3338 23.0499 23.417 22.8004 23.4066 22.556C23.3962 22.3116 23.2922 22.0673 23.0947 21.8801C22.4708 21.303 22.3304 20.9443 22.1432 20.362C21.9249 19.6913 21.9613 19.0362 22.1744 18.4539C22.32 18.0535 22.5488 17.6792 22.8399 17.3516C23.1259 17.0241 23.4742 16.7329 23.8589 16.5094L23.8745 16.499C24.2697 16.2702 24.696 16.1038 25.1379 16.0207C25.5591 15.9427 25.9906 15.9375 26.4117 16.0259C27.0044 16.1506 27.5867 16.4626 28.1015 17.0033C28.5538 17.4764 28.9541 18.1315 29.2713 18.9946L29.2765 19.005C29.3857 19.3429 29.7392 19.5405 30.1551 19.6185C30.3423 19.6549 30.5399 19.6653 30.7322 19.6549H30.7374C30.935 19.6445 31.1222 19.6081 31.299 19.5509C31.6109 19.4469 31.8553 19.2805 31.9125 19.0674V18.9478C31.9125 18.3447 32.2712 17.7052 32.7651 17.1801C33.3058 16.6082 34.0285 16.1558 34.6368 16.031C35.0215 15.9531 35.4115 15.9479 35.791 16.0051C36.1862 16.0674 36.5709 16.1922 36.9348 16.3742L36.966 16.3846C37.3352 16.5718 37.6731 16.8109 37.9695 17.0917C38.2606 17.3724 38.5102 17.6896 38.6974 18.0379C38.9937 18.5838 39.1289 19.2077 39.0353 19.868C38.9521 20.4451 38.9313 20.8091 38.4478 21.3862L38.4426 21.3914C38.271 21.5942 38.1982 21.8489 38.219 22.0985C38.2398 22.3376 38.349 22.5716 38.5414 22.738L38.5726 22.764C38.7753 22.9303 39.0249 22.9979 39.2693 22.9771C39.5084 22.9563 39.7424 22.8472 39.9088 22.6548L39.9348 22.6184C40.4339 22.0257 40.595 21.589 40.8238 20.8403ZM52.2412 46.285C52.1424 46.0406 52.0852 45.7755 52.0852 45.4947C52.0852 45.2139 52.1424 44.9488 52.2412 44.7044C52.3452 44.4601 52.4907 44.2365 52.6779 44.0545L52.6883 44.0389C52.7923 43.9349 52.9119 43.8362 53.0418 43.7582C53.1094 43.7166 53.1822 43.675 53.2602 43.6386V40.3579H49.2257C49.2309 40.1448 49.2309 39.9316 49.2205 39.7132C49.2101 39.5937 49.2621 39.4741 49.366 39.4065C49.782 39.1205 50.1615 38.8242 50.5047 38.5174H54.1753C54.43 38.5174 54.6588 38.6214 54.8252 38.7878C54.9915 38.9542 55.0955 39.1829 55.0955 39.4377V43.6698C55.1579 43.701 55.2203 43.7374 55.2827 43.779C55.3919 43.8518 55.4958 43.9349 55.5894 44.0285L55.605 44.0441C55.7922 44.2313 55.9482 44.4601 56.0522 44.7148C56.1509 44.9592 56.2081 45.2243 56.2081 45.5051C56.2081 45.7755 56.1561 46.0354 56.0574 46.2798L56.0522 46.2954C55.9482 46.5501 55.7922 46.7737 55.605 46.9661C55.4179 47.1532 55.1891 47.3092 54.9343 47.4132C54.69 47.512 54.4248 47.5692 54.1441 47.5692C53.8685 47.5692 53.6034 47.512 53.3538 47.4132C53.099 47.3092 52.8703 47.1532 52.6831 46.9661C52.5011 46.7685 52.3452 46.5397 52.2412 46.285ZM58.085 35.7567H52.5999C52.6935 35.5539 52.7767 35.3511 52.8495 35.1432C52.9951 34.7376 53.099 34.3269 53.1614 33.9162H58.085C58.1214 33.8486 58.1578 33.781 58.1994 33.7134C58.2774 33.5886 58.371 33.4742 58.4698 33.3755C58.6621 33.1831 58.8857 33.0323 59.1405 32.9283C59.3848 32.8295 59.65 32.7723 59.9307 32.7723C60.2011 32.7723 60.461 32.8243 60.7054 32.9231L60.721 32.9283C60.9758 33.0323 61.1993 33.1883 61.3917 33.3755C61.5789 33.5626 61.7348 33.7914 61.8388 34.0461C61.9376 34.2905 61.9948 34.5557 61.9948 34.8364C61.9948 35.112 61.9376 35.3771 61.8388 35.6267C61.7348 35.8814 61.5789 36.1102 61.3917 36.2974C61.2045 36.4846 60.9758 36.6405 60.721 36.7445C60.4766 36.8433 60.2115 36.9005 59.9307 36.9005C59.6604 36.9005 59.4004 36.8485 59.1561 36.7497L59.1405 36.7445C58.8857 36.6405 58.6621 36.4846 58.4698 36.2974C58.371 36.1986 58.2826 36.0894 58.2046 35.9698L58.1942 35.9542C58.1578 35.8918 58.1214 35.8243 58.085 35.7567ZM59.8319 30.7239H52.9327C52.7559 30.1416 52.5063 29.5749 52.1944 29.0342L52.184 29.0186C52.158 28.9718 52.132 28.9302 52.106 28.8834H58.9169V22.8783C58.8649 22.8472 58.8129 22.816 58.7609 22.7796C58.6569 22.7068 58.5634 22.6288 58.475 22.5404C58.2878 22.3532 58.1318 22.1245 58.0278 21.8697C57.9291 21.6253 57.8719 21.3602 57.8719 21.0794C57.8719 20.8039 57.9291 20.5335 58.0278 20.2892C58.1318 20.0344 58.2878 19.8108 58.475 19.6185C58.6621 19.4313 58.8909 19.2753 59.1457 19.1713C59.39 19.0726 59.6552 19.0154 59.9359 19.0154C60.2115 19.0154 60.4766 19.0726 60.7262 19.1713C60.981 19.2753 61.2097 19.4313 61.3969 19.6185C61.5841 19.8056 61.74 20.0344 61.844 20.2892C61.9428 20.5335 62 20.7987 62 21.0794C62 21.3498 61.948 21.6098 61.8492 21.8541L61.844 21.8697C61.74 22.1245 61.5841 22.348 61.3969 22.5404C61.2825 22.6548 61.1473 22.7588 61.007 22.8472C60.929 22.8939 60.8406 22.9407 60.7574 22.9771V29.7984C60.7574 30.0532 60.6534 30.2819 60.487 30.4483C60.3155 30.6199 60.0867 30.7239 59.8319 30.7239ZM52.6207 26.2838H50.2707C50.3331 25.9407 50.3695 25.5975 50.3851 25.2544C50.3955 24.9788 50.3955 24.7085 50.3799 24.4433H51.7005V21.7293C51.6277 21.6929 51.5601 21.6565 51.4925 21.6097C51.3677 21.5318 51.2533 21.4382 51.1441 21.329C50.957 21.1418 50.801 20.9131 50.697 20.6583C50.5982 20.4139 50.541 20.1488 50.541 19.8732C50.541 19.5977 50.5982 19.3325 50.697 19.083C50.801 18.8386 50.9466 18.615 51.1285 18.4279L51.1441 18.4123C51.3313 18.2251 51.5601 18.0691 51.8148 17.9651C52.0592 17.8664 52.3244 17.8092 52.6051 17.8092C52.8859 17.8092 53.151 17.8664 53.3954 17.9651C53.6397 18.0691 53.8633 18.2147 54.0505 18.4019L54.0661 18.4123C54.2532 18.5994 54.404 18.8178 54.508 19.0674L54.5132 19.083C54.612 19.3273 54.6692 19.5925 54.6692 19.8732C54.6692 20.1488 54.612 20.4191 54.5132 20.6635C54.4092 20.9079 54.2636 21.1314 54.0817 21.3186L54.0661 21.3342C53.9673 21.433 53.8581 21.5214 53.7333 21.6046C53.6709 21.6461 53.6086 21.6825 53.541 21.7137V25.3635C53.541 25.6183 53.437 25.8471 53.2706 26.0134C53.1042 26.1798 52.8703 26.2838 52.6207 26.2838ZM16.185 10.5459C16.4293 10.6447 16.6945 10.7019 16.9753 10.7019C17.256 10.7019 17.5212 10.6447 17.7655 10.5459C18.0099 10.442 18.2335 10.2964 18.4154 10.1092L18.431 10.0988C18.535 9.99482 18.6338 9.87524 18.7118 9.74526C18.7534 9.67767 18.795 9.60489 18.8314 9.5269H22.112V12.3604C22.6891 12.0537 23.313 11.8301 23.9525 11.7001V8.60665C23.9525 8.35189 23.8486 8.12313 23.6822 7.95675C23.5158 7.79038 23.287 7.6864 23.0323 7.6864H18.8002C18.769 7.62401 18.7326 7.56162 18.691 7.49923C18.6182 7.39004 18.535 7.28606 18.4414 7.19248L18.4258 7.17688C18.2387 6.98971 18.0099 6.83373 17.7551 6.72975C17.5108 6.63097 17.2456 6.57378 16.9649 6.57378C16.6945 6.57378 16.4293 6.62577 16.1902 6.72455L16.1746 6.72975C15.9198 6.83373 15.6963 6.98971 15.5039 7.17688C15.3167 7.36405 15.1608 7.59281 15.0568 7.84757C14.958 8.09193 14.9008 8.35709 14.9008 8.63784C14.9008 8.9134 14.958 9.17856 15.0568 9.42812C15.1608 9.68287 15.3167 9.91164 15.5039 10.0988C15.7067 10.286 15.9302 10.442 16.185 10.5459ZM26.7185 4.70208V11.8041C27.332 11.9809 27.9299 12.2617 28.4914 12.6672L28.5538 12.714C28.5538 12.6984 28.559 12.6828 28.559 12.6672V4.70208C28.6266 4.66568 28.6942 4.62929 28.7618 4.5877C28.8865 4.50971 29.0009 4.41612 29.0997 4.31734C29.2869 4.12497 29.4429 3.90141 29.5468 3.64665C29.6456 3.40229 29.7028 3.13713 29.7028 2.85638C29.7028 2.58602 29.6508 2.32606 29.552 2.0817L29.5468 2.0661C29.4429 1.81134 29.2869 1.58778 29.0997 1.39541C28.9125 1.20824 28.6838 1.05227 28.429 0.948283C28.1847 0.849499 27.9195 0.792309 27.6387 0.792309C27.3632 0.792309 27.098 0.849499 26.8485 0.948283C26.5937 1.05227 26.3649 1.20824 26.1778 1.39541C25.9906 1.58258 25.8346 1.81134 25.7306 2.0661C25.6319 2.31046 25.5747 2.57562 25.5747 2.85638C25.5747 3.12673 25.6267 3.38669 25.7254 3.63105L25.7306 3.64665C25.8346 3.90141 25.9906 4.12497 26.1778 4.31734C26.2766 4.41612 26.3857 4.50451 26.5053 4.5825L26.5157 4.5877C26.5833 4.62929 26.6457 4.66568 26.7185 4.70208ZM31.7461 2.95516V13.3431C31.9956 13.0883 32.2608 12.8648 32.5312 12.6672C32.8691 12.4228 33.2226 12.2201 33.5866 12.0641V3.87021H39.5916C39.6228 3.9222 39.654 3.9742 39.6904 4.02619C39.7632 4.13017 39.8412 4.22376 39.9296 4.31214C40.1167 4.49931 40.3455 4.65529 40.6002 4.75927C40.8446 4.85805 41.1098 4.91524 41.3905 4.91524C41.6661 4.91524 41.9364 4.85805 42.1808 4.75927C42.4356 4.65529 42.6643 4.49931 42.8515 4.31214C43.0387 4.12497 43.1946 3.89621 43.2986 3.64145C43.3974 3.39709 43.4546 3.13193 43.4546 2.85118C43.4546 2.57562 43.3974 2.31046 43.2986 2.0609C43.1946 1.80614 43.0387 1.57738 42.8515 1.39021C42.6539 1.20304 42.4252 1.04707 42.1704 0.943084C41.926 0.8443 41.6609 0.787109 41.3853 0.787109C41.115 0.787109 40.855 0.839101 40.6106 0.937885L40.5951 0.943084C40.3403 1.04707 40.1167 1.20304 39.9244 1.39021C39.81 1.50459 39.706 1.63977 39.6176 1.78015C39.5708 1.85814 39.524 1.94652 39.4876 2.02971H32.6663C32.4116 2.02971 32.1828 2.13369 32.0164 2.30007C31.8501 2.47164 31.7461 2.7004 31.7461 2.95516ZM36.1862 10.1664V11.591C36.3733 11.6014 36.5657 11.617 36.7529 11.6482C37.1896 11.7105 37.6159 11.8197 38.0267 11.9705V11.0918H40.7406C40.777 11.1646 40.8134 11.2322 40.8602 11.2998C40.9382 11.4246 41.0318 11.539 41.141 11.6482C41.3281 11.8353 41.5569 11.9913 41.8117 12.0953C42.056 12.1941 42.3212 12.2513 42.5967 12.2513C42.8723 12.2513 43.1374 12.1941 43.387 12.0953C43.6314 11.9913 43.8549 11.8457 44.0421 11.6638L44.0577 11.6482C44.2449 11.461 44.4008 11.2322 44.5048 10.9775C44.6036 10.7331 44.6608 10.4679 44.6608 10.1872C44.6608 9.90644 44.6036 9.64128 44.5048 9.39692C44.4008 9.15256 44.2553 8.929 44.0681 8.74183L44.0577 8.72623C43.8705 8.53906 43.6522 8.38828 43.4026 8.2843L43.387 8.2791C43.1426 8.18032 42.8775 8.12313 42.5967 8.12313C42.3212 8.12313 42.0508 8.18032 41.8065 8.2791C41.5621 8.38308 41.3385 8.52866 41.1514 8.71063L41.1358 8.72623C41.037 8.82501 40.9486 8.93419 40.8654 9.05897C40.8238 9.12136 40.7874 9.18375 40.7562 9.25134H37.1064C36.8517 9.25134 36.6229 9.35533 36.4565 9.5217C36.2901 9.68287 36.1862 9.91164 36.1862 10.1664ZM9.75883 19.0882C9.85761 19.3325 9.9148 19.5977 9.9148 19.8784C9.9148 20.1592 9.85761 20.4243 9.75883 20.6687C9.65484 20.9131 9.50927 21.1366 9.3221 21.3186L9.3117 21.3342C9.20771 21.4382 9.08813 21.537 8.95815 21.615C8.89056 21.6565 8.81778 21.6981 8.73979 21.7345V25.0152H12.1452V25.1764C12.1452 25.3012 12.1504 25.4311 12.1556 25.5663C12.166 25.6807 12.114 25.7951 12.0153 25.8679C11.5681 26.185 11.1678 26.5178 10.8039 26.8557H7.82994C7.57518 26.8557 7.34642 26.7517 7.18004 26.5853C7.01367 26.419 6.90969 26.1902 6.90969 25.9355V21.7033C6.8473 21.6721 6.78491 21.6357 6.72252 21.5942C6.61333 21.5214 6.50935 21.4382 6.41576 21.3446L6.40017 21.329C6.213 21.1418 6.05702 20.9131 5.95304 20.6583C5.85426 20.4139 5.79706 20.1488 5.79706 19.868C5.79706 19.5977 5.84906 19.3377 5.94784 19.0934L5.95304 19.0778C6.05702 18.823 6.213 18.5994 6.40017 18.4071C6.58734 18.2199 6.8161 18.0639 7.07086 17.9599C7.31522 17.8612 7.58038 17.804 7.86113 17.804C8.13669 17.804 8.40184 17.8612 8.6514 17.9599C8.90616 18.0639 9.13493 18.2199 9.3221 18.4071C9.49887 18.6046 9.65484 18.8334 9.75883 19.0882ZM3.91497 29.6165H8.80218C8.71899 29.8036 8.6462 29.996 8.57862 30.1832C8.43304 30.6043 8.32906 31.0254 8.26667 31.4518H3.91497C3.87857 31.5194 3.84218 31.5869 3.80059 31.6545C3.7226 31.7793 3.62901 31.8937 3.53023 31.9925C3.33786 32.1848 3.1143 32.3356 2.85954 32.4396C2.61518 32.5384 2.35002 32.5956 2.06927 32.5956C1.79891 32.5956 1.53895 32.5436 1.29459 32.4448L1.27899 32.4396C1.02423 32.3356 0.800671 32.1796 0.608302 31.9925C0.421132 31.8053 0.265157 31.5765 0.161174 31.3218C0.0623899 31.0774 0.00519916 30.8123 0.00519916 30.5315C0.00519916 30.256 0.0623899 29.9908 0.161174 29.7412C0.265157 29.4865 0.421132 29.2577 0.608302 29.0705C0.795472 28.8834 1.02423 28.7274 1.27899 28.6234C1.52335 28.5246 1.78851 28.4674 2.06927 28.4674C2.33962 28.4674 2.59958 28.5194 2.84394 28.6182L2.85954 28.6234C3.1143 28.7274 3.33786 28.8834 3.53023 29.0705C3.62901 29.1693 3.7174 29.2785 3.79539 29.3981L3.80579 29.4137C3.84218 29.4813 3.87857 29.5489 3.91497 29.6165ZM2.16805 34.6492H8.52662C8.72419 35.2783 9.01015 35.8866 9.37409 36.4638V36.469L9.38449 36.4897H3.0831V42.4948C3.13509 42.526 3.18709 42.5572 3.23908 42.5936C3.34306 42.6664 3.43665 42.7443 3.52503 42.8327C3.7122 43.0199 3.86818 43.2487 3.97216 43.5034C4.07094 43.7478 4.12813 44.0129 4.12813 44.2937C4.12813 44.5692 4.07094 44.8396 3.97216 45.084C3.86818 45.3387 3.7122 45.5623 3.52503 45.7547C3.33786 45.9418 3.1091 46.0978 2.85434 46.2018C2.60998 46.3006 2.34482 46.3578 2.06407 46.3578C1.78851 46.3578 1.52335 46.3006 1.27379 46.2018C1.01904 46.0978 0.790272 45.9418 0.603103 45.7547C0.415933 45.5519 0.259958 45.3231 0.155975 45.0736C0.0571908 44.8292 0 44.564 0 44.2833C0 44.0129 0.0519916 43.753 0.150776 43.5086L0.155975 43.493C0.259958 43.2383 0.415933 43.0147 0.603103 42.8223C0.717484 42.7079 0.852662 42.604 0.99304 42.5156C1.07103 42.4688 1.15941 42.422 1.2426 42.3856V35.5643C1.2426 35.3095 1.34658 35.0808 1.51296 34.9144C1.68453 34.7532 1.91329 34.6492 2.16805 34.6492ZM9.37929 39.0893H11.095C11.0378 39.4325 11.0066 39.7704 10.9962 40.1032C10.9858 40.3839 10.991 40.6595 11.0118 40.9298H10.2995V43.6438C10.3723 43.6802 10.4399 43.7166 10.5075 43.7634C10.6323 43.8414 10.7467 43.9349 10.8558 44.0441C11.043 44.2313 11.199 44.4601 11.303 44.7148C11.4018 44.9592 11.459 45.2243 11.459 45.5051C11.459 45.7859 11.4018 46.0458 11.303 46.2954C11.199 46.5397 11.0534 46.7633 10.8714 46.9505L10.8558 46.9661C10.6687 47.1532 10.4399 47.3092 10.1852 47.4132C9.9408 47.512 9.67564 47.5692 9.39488 47.5692C9.11413 47.5692 8.84897 47.512 8.60461 47.4132C8.36025 47.3092 8.13669 47.1636 7.94952 46.9765L7.93392 46.9661C7.74675 46.7789 7.59597 46.5605 7.49199 46.311L7.48679 46.2954C7.38801 46.051 7.33082 45.7859 7.33082 45.5051C7.33082 45.2295 7.38801 44.9592 7.48679 44.7148C7.59078 44.4705 7.73635 44.2469 7.91832 44.0597L7.93392 44.0441C8.0327 43.9453 8.14189 43.857 8.26667 43.7738C8.32906 43.7322 8.39145 43.6958 8.45904 43.6646V40.0148C8.45904 39.76 8.56302 39.5313 8.72939 39.3649C8.89577 39.1881 9.12453 39.0893 9.37929 39.0893ZM34.3301 60.7594V53.4858C33.6802 53.283 33.0667 52.9555 32.5052 52.4928L32.4948 52.4824V60.7646C32.4272 60.801 32.3596 60.8374 32.292 60.879C32.1672 60.957 32.0528 61.0506 31.954 61.1494C31.7669 61.3417 31.6109 61.5653 31.5069 61.8201C31.4081 62.0644 31.3509 62.3296 31.3509 62.6103C31.3509 62.8807 31.4029 63.1407 31.5017 63.385L31.5069 63.4006C31.6109 63.6554 31.7669 63.8789 31.954 64.0713C32.1412 64.2585 32.37 64.4144 32.6247 64.5184C32.8691 64.6172 33.1343 64.6744 33.415 64.6744C33.6906 64.6744 33.9557 64.6172 34.2053 64.5184C34.46 64.4144 34.6888 64.2585 34.876 64.0713C35.0631 63.8841 35.2191 63.6554 35.3231 63.4006C35.4219 63.1562 35.4791 62.8911 35.4791 62.6103C35.4791 62.34 35.4271 62.08 35.3283 61.8357L35.3231 61.8201C35.2191 61.5653 35.0631 61.3417 34.876 61.1494C34.7772 61.0506 34.668 60.9622 34.5484 60.8842L34.5328 60.8738C34.4652 60.8322 34.3976 60.7958 34.3301 60.7594ZM29.2973 62.5064V52.0248C29.0789 52.2484 28.8501 52.446 28.611 52.6279C28.2418 52.9087 27.8571 53.1323 27.4568 53.309V61.5965H21.4517C21.4205 61.5445 21.3893 61.4925 21.353 61.4405C21.2802 61.3365 21.2022 61.243 21.1138 61.1546C20.9266 60.9674 20.6979 60.8114 20.4431 60.7074C20.1987 60.6087 19.9336 60.5515 19.6528 60.5515C19.3773 60.5515 19.1069 60.6087 18.8626 60.7074C18.6078 60.8114 18.3842 60.9674 18.1919 61.1546C18.0047 61.3417 17.8487 61.5705 17.7447 61.8253C17.646 62.0696 17.5888 62.3348 17.5888 62.6155C17.5888 62.8911 17.646 63.1562 17.7447 63.4058C17.8487 63.6606 18.0047 63.8893 18.1919 64.0765C18.379 64.2637 18.6078 64.4196 18.8626 64.5236C19.1069 64.6224 19.3721 64.6796 19.6528 64.6796C19.9232 64.6796 20.1831 64.6276 20.4275 64.5288L20.4431 64.5236C20.6979 64.4196 20.9214 64.2637 21.1138 64.0765C21.2282 63.9621 21.3322 63.8269 21.4205 63.6866C21.4673 63.6086 21.5141 63.5202 21.5505 63.437H28.3718C28.6266 63.437 28.8553 63.333 29.0217 63.1666C29.1933 62.9899 29.2973 62.7611 29.2973 62.5064ZM24.8572 55.2951V53.7822C24.4517 53.7614 24.0461 53.699 23.651 53.6002C23.4378 53.5482 23.2247 53.4806 23.0167 53.4078V54.3801H20.3027C20.2663 54.3073 20.2299 54.2397 20.1831 54.1721C20.1052 54.0473 20.0116 53.9329 19.9024 53.8238C19.7152 53.6366 19.4865 53.4806 19.2317 53.3766C18.9873 53.2778 18.7222 53.2206 18.4466 53.2206C18.1711 53.2206 17.9059 53.2778 17.6564 53.3766C17.412 53.4806 17.1884 53.6262 17.0013 53.8082L16.9857 53.8186C16.7985 54.0057 16.6425 54.2345 16.5385 54.4892C16.4397 54.7336 16.3826 54.9988 16.3826 55.2795C16.3826 55.5603 16.4397 55.8254 16.5385 56.0698C16.6425 56.3142 16.7881 56.5377 16.9753 56.7249L16.9857 56.7405C17.1728 56.9277 17.3912 57.0784 17.6408 57.1824L17.6564 57.1876C17.9007 57.2864 18.1659 57.3436 18.4466 57.3436C18.7222 57.3436 18.9873 57.2864 19.2369 57.1876C19.4813 57.0836 19.7048 56.938 19.892 56.7561L19.9076 56.7405C20.0064 56.6417 20.0948 56.5325 20.1779 56.4077C20.2195 56.3453 20.2559 56.283 20.2871 56.2154H23.9369C24.1917 56.2154 24.4205 56.1114 24.5868 55.945C24.7532 55.7786 24.8572 55.5499 24.8572 55.2951Z" fill="#767676"/>
</svg>
