<svg width="14" height="15" viewBox="0 0 14 15" fill="none" xmlns="http://www.w3.org/2000/svg">
<path d="M7 0.5C10.8663 0.5 14 3.63428 14 7.5C14 11.3663 10.8663 14.5 7 14.5C3.13428 14.5 0 11.366 0 7.5C0 3.63428 3.13428 0.5 7 0.5Z" fill="#F5AC37"/>
<path d="M7.25799 7.99381H9.91788C9.97458 7.99381 10.0014 7.99381 10.0054 7.91947C10.0272 7.64888 10.0272 7.37672 10.0054 7.10582C10.0054 7.05321 9.9793 7.03147 9.92229 7.03147H4.62866C4.56314 7.03147 4.5455 7.05321 4.5455 7.11464V7.89332C4.5455 7.99381 4.5455 7.99381 4.65039 7.99381H7.25799ZM9.7084 6.12143C9.71596 6.10159 9.71596 6.07985 9.7084 6.06032C9.66398 5.96361 9.61138 5.87132 9.55027 5.78469C9.45829 5.63664 9.34993 5.50024 9.22644 5.37771C9.16817 5.30368 9.10076 5.23722 9.02516 5.18083C8.64652 4.85858 8.19638 4.63052 7.71254 4.51586C7.46841 4.46105 7.21893 4.4349 6.96882 4.43711H4.61952C4.554 4.43711 4.54518 4.46325 4.54518 4.52027V6.07324C4.54518 6.13876 4.54518 6.1564 4.62834 6.1564H9.6769C9.6769 6.1564 9.72068 6.14758 9.7295 6.12143H9.70808H9.7084ZM9.7084 8.90385C9.63406 8.89566 9.55909 8.89566 9.48475 8.90385H4.63307C4.56755 8.90385 4.5455 8.90385 4.5455 8.99142V10.5097C4.5455 10.5797 4.5455 10.5973 4.63307 10.5973H6.87306C6.98016 10.6055 7.08726 10.5979 7.19215 10.5756C7.51724 10.5523 7.83697 10.4817 8.14189 10.3655C8.25277 10.327 8.35987 10.277 8.46099 10.2168H8.49154C9.01665 9.94368 9.44317 9.51464 9.71218 8.98796C9.71218 8.98796 9.74273 8.92181 9.7084 8.90448V8.90385ZM3.66632 11.3845V11.3584V10.339V9.99345V8.96528C3.66632 8.90826 3.66632 8.89976 3.59639 8.89976H2.64697C2.59437 8.89976 2.57263 8.89976 2.57263 8.82983V7.99853H3.58757C3.64427 7.99853 3.66632 7.99853 3.66632 7.92419V7.10172C3.66632 7.04911 3.66632 7.0362 3.59639 7.0362H2.64697C2.59437 7.0362 2.57263 7.0362 2.57263 6.96627V6.1964C2.57263 6.14821 2.57263 6.13529 2.64256 6.13529H3.58316C3.64868 6.13529 3.66632 6.13529 3.66632 6.05213V3.69402C3.66632 3.62409 3.66632 3.60645 3.75389 3.60645H7.03497C7.27311 3.6159 7.50968 3.64204 7.74372 3.6852C8.22599 3.77434 8.68936 3.94665 9.11304 4.19267C9.39403 4.35804 9.65264 4.55775 9.88291 4.78771C10.0562 4.96757 10.2124 5.16225 10.351 5.36952C10.4887 5.57963 10.603 5.80422 10.6928 6.0389C10.7038 6.10001 10.7624 6.14128 10.8235 6.13088H11.6066C11.7071 6.13088 11.7071 6.13088 11.7115 6.22727V6.94485C11.7115 7.01478 11.6854 7.03242 11.6151 7.03242H11.0113C10.9501 7.03242 10.9325 7.03242 10.9369 7.11117C10.9609 7.37766 10.9609 7.6451 10.9369 7.91159C10.9369 7.98593 10.9369 7.99475 11.0204 7.99475H11.7112C11.7417 8.03413 11.7112 8.0735 11.7112 8.1132C11.7156 8.16391 11.7156 8.21526 11.7112 8.26597V8.79549C11.7112 8.86983 11.6895 8.89188 11.6236 8.89188H10.7967C10.7391 8.88086 10.683 8.91771 10.6698 8.97504C10.4729 9.48692 10.1579 9.94588 9.75092 10.3138C9.60224 10.4477 9.446 10.5737 9.28283 10.6899C9.10769 10.7907 8.93727 10.8956 8.75772 10.9788C8.42728 11.1275 8.08078 11.2371 7.72514 11.3067C7.38746 11.3672 7.04505 11.3946 6.70138 11.3899H3.66506V11.3854L3.66632 11.3845Z" fill="#FEFEFD"/>
</svg>
