<svg width="86" height="49" viewBox="0 0 86 49" fill="none" xmlns="http://www.w3.org/2000/svg">
<path fill-rule="evenodd" clip-rule="evenodd" d="M60.7375 16.4144L67.0823 16.4353C67.0753 18.124 66.3943 19.7432 65.192 20.9315C64.9071 21.2095 64.5944 21.4666 64.2678 21.689L60.7375 16.4144ZM10.8897 0H74.1081C74.935 0 75.6161 0.681038 75.6161 1.50801V44.0104C75.6161 44.7122 75.1366 45.3029 74.4833 45.4697H83.6287C84.6016 45.4697 85.3938 46.2619 85.3938 47.2349C85.3938 48.2078 84.6016 49 83.6287 49H1.76514C0.792228 49 0 48.2078 0 47.2349C0 46.2619 0.792228 45.4697 1.76514 45.4697H10.5144C9.8681 45.3029 9.38165 44.7053 9.38165 44.0104V1.50801C9.38165 0.681038 10.0627 0 10.8897 0ZM11.9599 2.36279H73.2463V43.5864H11.9599V2.36279ZM40.216 46.1369H45.1778C45.6435 46.1369 46.0257 46.5191 46.0257 46.9847C46.0257 47.4503 45.6435 47.8325 45.1778 47.8325H40.216C39.7504 47.8325 39.3682 47.4503 39.3682 46.9847C39.3682 46.5121 39.7504 46.1369 40.216 46.1369ZM26.1227 11.4317H28.0546C28.1588 11.4317 28.2422 11.5151 28.2422 11.6193V18.5062C28.2422 18.6104 28.1588 18.6938 28.0546 18.6938H26.1227C26.0184 18.6938 25.935 18.6104 25.935 18.5062V11.6193C25.935 11.5151 26.0184 11.4317 26.1227 11.4317ZM17.3804 9.10367H19.3123C19.4165 9.10367 19.4999 9.18707 19.4999 9.29131V18.5062C19.4999 18.6104 19.4165 18.6938 19.3123 18.6938H17.3804C17.2761 18.6938 17.1927 18.6104 17.1927 18.5062V9.29131C17.1927 9.18707 17.2761 9.10367 17.3804 9.10367ZM21.7515 7.79719H23.6834C23.7877 7.79719 23.8711 7.88058 23.8711 7.98482V18.5062C23.8711 18.6104 23.7877 18.6938 23.6834 18.6938H21.7515C21.6473 18.6938 21.5639 18.6104 21.5639 18.5062V7.98482C21.5639 7.88058 21.6473 7.79719 21.7515 7.79719ZM17.4916 36.5884C17.0676 36.5884 16.7271 36.241 16.7271 35.817C16.7271 35.3931 17.0676 35.0457 17.4916 35.0457H67.8953C68.3192 35.0457 68.6598 35.3931 68.6598 35.817C68.6598 36.241 68.3192 36.5884 67.8953 36.5884H17.4916ZM17.3665 30.9664C16.9426 30.9664 16.602 30.6189 16.602 30.195C16.602 29.7711 16.9426 29.4236 17.3665 29.4236H39.0207C39.4446 29.4236 39.7851 29.7711 39.7851 30.195C39.7851 30.6189 39.4446 30.9664 39.0207 30.9664H17.3665ZM41.9811 30.9664C41.5572 30.9664 41.2167 30.6189 41.2167 30.195C41.2167 29.7711 41.5572 29.4236 41.9811 29.4236H67.8953C68.3192 29.4236 68.6598 29.7711 68.6598 30.195C68.6598 30.6189 68.3192 30.9664 67.8953 30.9664H41.9811ZM17.3665 25.9489C16.9426 25.9489 16.602 25.6015 16.602 25.1776C16.602 24.7537 16.9426 24.4062 17.3665 24.4062H50.0771C50.5011 24.4062 50.8416 24.7537 50.8416 25.1776C50.8416 25.6015 50.5011 25.9489 50.0771 25.9489H17.3665ZM60.0842 15.1566L59.7437 8.37399C59.7368 8.24195 59.841 8.12381 59.973 8.11686C60.0147 8.11686 60.0564 8.10991 60.112 8.10991C60.1537 8.10991 60.2024 8.10991 60.251 8.10991C62.1134 8.08907 63.823 8.7979 65.1017 9.97234C66.3804 11.1468 67.2212 12.7938 67.3602 14.6562C67.3672 14.7883 67.2699 14.9064 67.1378 14.9133L60.3553 15.3998C60.2232 15.4068 60.1051 15.3095 60.0981 15.1774C60.0842 15.1635 60.0842 15.1566 60.0842 15.1566ZM60.2441 8.59637L60.5568 14.8925L66.846 14.4408C66.6722 12.8077 65.9009 11.3692 64.7681 10.3268C63.5798 9.22876 61.9884 8.57552 60.251 8.59637H60.2441ZM59.3268 16.1225L62.725 22.0156C61.6895 22.6132 60.5151 22.926 59.3268 22.926C55.5672 22.926 52.5233 19.8821 52.5233 16.1225C52.5233 12.7451 54.9973 9.882 58.3399 9.39555L59.3268 16.1225Z" fill="#767676"/>
</svg>
