<svg width="60" height="56" viewBox="0 0 60 56" fill="none" xmlns="http://www.w3.org/2000/svg">
<g clip-path="url(#clip0_315_2366)">
<path d="M38.8773 25.384C38.8773 26.0084 38.3691 26.5165 37.7448 26.5165C37.1205 26.5165 36.6123 26.0084 36.6123 25.384V18.381C36.6123 17.7567 37.1205 17.2485 37.7448 17.2485C38.3691 17.2485 38.8773 17.7567 38.8773 18.381V25.384Z" fill="#767676"/>
<path d="M38.8773 54.8626C38.8773 55.4869 38.3691 55.995 37.7448 55.995C37.1205 55.995 36.6123 55.4869 36.6123 54.8626V47.8595C36.6123 47.2352 37.1205 46.7271 37.7448 46.7271C38.3691 46.7271 38.8773 47.2352 38.8773 47.8595V54.8626Z" fill="#767676"/>
<path d="M33.8779 23.8257H41.5101C42.0569 23.8257 42.5554 24.0531 42.9233 24.421C43.3056 24.8033 43.5427 25.3357 43.5427 25.9213V46.8577C43.5427 47.4433 43.3056 47.9757 42.9233 48.3581C42.5554 48.7259 42.0569 48.9533 41.5101 48.9533H33.8779C33.331 48.9533 32.8325 48.7259 32.4647 48.3581C32.0824 47.9757 31.8452 47.4433 31.8452 46.8577V25.9213C31.8452 25.3357 32.0824 24.8033 32.4647 24.421C32.8373 24.0531 33.3358 23.8257 33.8779 23.8257ZM40.5324 26.9618H34.8603V45.8124H40.5324V26.9618Z" fill="#767676"/>
<path fill-rule="evenodd" clip-rule="evenodd" d="M33.8779 25.394H41.51C41.8004 25.394 42.0376 25.6312 42.0376 25.9216V46.858C42.0376 47.1484 41.8004 47.3856 41.51 47.3856H33.8779C33.5875 47.3856 33.3503 47.1484 33.3503 46.858V25.9216C33.3552 25.6312 33.5923 25.394 33.8779 25.394Z" fill="#767676"/>
<path d="M54.6981 20.98C54.6981 21.6043 54.1899 22.1125 53.5656 22.1125C52.9413 22.1125 52.4331 21.6043 52.4331 20.98V11.5426C52.4331 10.9183 52.9413 10.4102 53.5656 10.4102C54.1899 10.4102 54.6981 10.9183 54.6981 11.5426V20.98Z" fill="#767676"/>
<path d="M54.6981 49.8634C54.6981 50.4877 54.1899 50.9959 53.5656 50.9959C52.9413 50.9959 52.4331 50.4877 52.4331 49.8634V40.4308C52.4331 39.8065 52.9413 39.2983 53.5656 39.2983C54.1899 39.2983 54.6981 39.8065 54.6981 40.4308V49.8634Z" fill="#767676"/>
<path d="M49.8051 19.4072H57.4373C57.9842 19.4072 58.4827 19.6347 58.8505 20.0025C59.2328 20.3848 59.47 20.9172 59.47 21.5028V39.1096C59.47 39.6952 59.2328 40.2276 58.8505 40.6099C58.4827 40.9777 57.9842 41.2052 57.4373 41.2052H49.8051C49.2582 41.2052 48.7598 40.9777 48.3919 40.6099C48.0096 40.2276 47.7725 39.7 47.7725 39.1096V21.5028C47.7725 20.9172 48.0096 20.3848 48.3919 20.0025C48.7598 19.6395 49.2582 19.4072 49.8051 19.4072ZM56.4597 22.5482H50.7876V38.0739H56.4597V22.5482Z" fill="#767676"/>
<path d="M22.9063 9.52934C22.9063 10.1537 22.3982 10.6618 21.7738 10.6618C21.1495 10.6618 20.6414 10.1537 20.6414 9.52934V1.13249C20.6414 0.508167 21.1495 0 21.7738 0C22.3982 0 22.9063 0.508167 22.9063 1.13249V9.52934Z" fill="#767676"/>
<path d="M22.9063 43.7555C22.9063 44.3798 22.3982 44.8879 21.7738 44.8879C21.1495 44.8879 20.6414 44.3798 20.6414 43.7555V35.3634C20.6414 34.7391 21.1495 34.231 21.7738 34.231C22.3982 34.231 22.9063 34.7391 22.9063 35.3634V43.7555Z" fill="#767676"/>
<path d="M17.9553 7.96143H25.5875C26.1343 7.96143 26.6328 8.18889 27.0006 8.55671C27.383 8.93904 27.6201 9.47141 27.6201 10.057V34.3377C27.6201 34.9233 27.383 35.4557 27.0006 35.838C26.6328 36.2058 26.1343 36.4333 25.5875 36.4333H17.9553C17.4132 36.4333 16.9099 36.2058 16.5421 35.838C16.1598 35.4557 15.9226 34.9282 15.9226 34.3377V10.057C15.9226 9.47141 16.1598 8.93904 16.5421 8.55671C16.9099 8.18889 17.4132 7.96143 17.9553 7.96143ZM24.6098 11.0975H18.9377V33.2923H24.6098V11.0975Z" fill="#767676"/>
<path d="M6.98372 47.0415C6.98372 47.6658 6.47556 48.174 5.85124 48.174C5.22692 48.174 4.71875 47.6658 4.71875 47.0415V37.217C4.71875 36.5926 5.22692 36.0845 5.85124 36.0845C6.47556 36.0845 6.98372 36.5926 6.98372 37.217V47.0415Z" fill="#767676"/>
<path d="M6.98372 13.6578C6.98372 14.2821 6.47556 14.7903 5.85124 14.7903C5.22692 14.7903 4.71875 14.2821 4.71875 13.6578V3.83805C4.71875 3.21373 5.22692 2.70557 5.85124 2.70557C6.47556 2.70557 6.98372 3.21373 6.98372 3.83805V13.6578Z" fill="#767676"/>
<path d="M2.03267 12.375H9.66485C10.2117 12.375 10.7102 12.6025 11.078 12.9703C11.4604 13.3526 11.6975 13.885 11.6975 14.4706V36.6944C11.6975 37.28 11.4604 37.8124 11.078 38.1947C10.7102 38.5625 10.2117 38.79 9.66485 38.79H2.03267C1.48578 38.79 0.987296 38.5625 0.61948 38.1947C0.237145 37.8124 0 37.28 0 36.6944V14.4706C0 13.885 0.237145 13.3526 0.61948 12.9703C0.987296 12.6025 1.48578 12.375 2.03267 12.375ZM8.68724 15.5111H3.01028V35.649H8.6824V15.5111H8.68724Z" fill="#767676"/>
<path fill-rule="evenodd" clip-rule="evenodd" d="M2.03265 13.9434H9.66484C9.95522 13.9434 10.1924 14.1805 10.1924 14.4709V36.6947C10.1924 36.9851 9.95522 37.2222 9.66484 37.2222H2.03265C1.74227 37.2222 1.50513 36.9851 1.50513 36.6947V14.4709C1.50513 14.1805 1.74227 13.9434 2.03265 13.9434Z" fill="#767676"/>
</g>
<defs>
<clipPath id="clip0_315_2366">
<rect width="59.4701" height="56" fill="white"/>
</clipPath>
</defs>
</svg>
