<svg width="57" height="62" viewBox="0 0 57 62" fill="none" xmlns="http://www.w3.org/2000/svg">
<path fill-rule="evenodd" clip-rule="evenodd" d="M28.3092 0.220215C38.7332 6.82772 48.1502 9.95372 56.2322 9.21472C57.6437 37.7637 47.1007 54.6237 28.4172 61.6602C10.3747 55.0742 -0.29734 38.9397 0.49416 8.78172C9.98166 9.27822 19.2897 7.22722 28.3092 0.220215ZM28.5342 9.99172C35.6427 14.4972 42.0647 16.6287 47.5757 16.1257C48.5382 35.5937 41.3487 47.0907 28.6082 51.8887C28.5277 51.8592 28.4487 51.8287 28.3687 51.7987V10.1182L28.5342 9.99172ZM28.3202 3.74772C37.5472 9.59622 45.8832 12.3637 53.0372 11.7092C54.2862 36.9797 44.9542 51.9042 28.4167 58.1322C12.4457 52.3027 2.99816 38.0217 3.69916 11.3257C12.0977 11.7657 20.3367 9.95022 28.3202 3.74772Z" fill="#767676"/>
</svg>
