<svg width="132" height="30" viewBox="0 0 132 30" fill="none" xmlns="http://www.w3.org/2000/svg">
<path d="M7.176 23.312C5.368 23.312 3.856 22.704 2.64 21.488C1.44 20.272 0.84 18.776 0.84 17C0.84 15.208 1.44 13.712 2.64 12.512C3.856 11.296 5.368 10.688 7.176 10.688C8.344 10.688 9.408 10.968 10.368 11.528C11.328 12.088 12.048 12.84 12.528 13.784L10.296 15.08C10.024 14.504 9.608 14.056 9.048 13.736C8.504 13.4 7.872 13.232 7.152 13.232C6.096 13.232 5.208 13.592 4.488 14.312C3.784 15.032 3.432 15.928 3.432 17C3.432 18.072 3.784 18.968 4.488 19.688C5.208 20.408 6.096 20.768 7.152 20.768C7.856 20.768 8.488 20.6 9.048 20.264C9.624 19.928 10.056 19.48 10.344 18.92L12.576 20.192C12.064 21.152 11.328 21.912 10.368 22.472C9.408 23.032 8.344 23.312 7.176 23.312ZM14.4495 23V5.48H17.0415V23H14.4495ZM25.7151 23.312C23.9551 23.312 22.4591 22.704 21.2271 21.488C19.9951 20.272 19.3791 18.776 19.3791 17C19.3791 15.224 19.9951 13.728 21.2271 12.512C22.4591 11.296 23.9551 10.688 25.7151 10.688C27.4911 10.688 28.9871 11.296 30.2031 12.512C31.4351 13.728 32.0511 15.224 32.0511 17C32.0511 18.776 31.4351 20.272 30.2031 21.488C28.9871 22.704 27.4911 23.312 25.7151 23.312ZM23.0511 19.712C23.7711 20.432 24.6591 20.792 25.7151 20.792C26.7711 20.792 27.6591 20.432 28.3791 19.712C29.0991 18.992 29.4591 18.088 29.4591 17C29.4591 15.912 29.0991 15.008 28.3791 14.288C27.6591 13.568 26.7711 13.208 25.7151 13.208C24.6591 13.208 23.7711 13.568 23.0511 14.288C22.3311 15.008 21.9711 15.912 21.9711 17C21.9711 18.088 22.3311 18.992 23.0511 19.712ZM42.4828 11H45.0748V23H42.4828V21.464C41.6988 22.696 40.4588 23.312 38.7628 23.312C37.3868 23.312 36.2748 22.872 35.4268 21.992C34.5788 21.112 34.1548 19.904 34.1548 18.368V11H36.7468V18.104C36.7468 19 36.9868 19.688 37.4668 20.168C37.9468 20.648 38.6028 20.888 39.4348 20.888C40.3468 20.888 41.0828 20.608 41.6428 20.048C42.2028 19.472 42.4828 18.6 42.4828 17.432V11ZM57.6098 6.2H60.2018V23H57.6098V21.272C56.6338 22.632 55.2338 23.312 53.4098 23.312C51.7618 23.312 50.3538 22.704 49.1858 21.488C48.0178 20.256 47.4338 18.76 47.4338 17C47.4338 15.224 48.0178 13.728 49.1858 12.512C50.3538 11.296 51.7618 10.688 53.4098 10.688C55.2338 10.688 56.6338 11.36 57.6098 12.704V6.2ZM51.1058 19.76C51.8258 20.48 52.7298 20.84 53.8178 20.84C54.9058 20.84 55.8098 20.48 56.5298 19.76C57.2498 19.024 57.6098 18.104 57.6098 17C57.6098 15.896 57.2498 14.984 56.5298 14.264C55.8098 13.528 54.9058 13.16 53.8178 13.16C52.7298 13.16 51.8258 13.528 51.1058 14.264C50.3858 14.984 50.0258 15.896 50.0258 17C50.0258 18.104 50.3858 19.024 51.1058 19.76Z" fill="#121314"/>
<path d="M70.976 23.432C69.92 23.432 68.976 23.2 68.144 22.736C67.328 22.272 66.68 21.6 66.2 20.72C65.72 19.824 65.456 18.752 65.408 17.504H66.032V23H64.208V5.48H66.512V14L65.696 15.752C65.76 14.36 66.04 13.224 66.536 12.344C67.032 11.464 67.68 10.816 68.48 10.4C69.296 9.968 70.192 9.752 71.168 9.752C72.08 9.752 72.912 9.928 73.664 10.28C74.416 10.616 75.064 11.088 75.608 11.696C76.152 12.288 76.568 12.984 76.856 13.784C77.144 14.568 77.288 15.416 77.288 16.328V16.76C77.288 17.672 77.136 18.528 76.832 19.328C76.544 20.128 76.12 20.84 75.56 21.464C75 22.072 74.328 22.552 73.544 22.904C72.776 23.256 71.92 23.432 70.976 23.432ZM70.712 21.416C71.576 21.416 72.328 21.208 72.968 20.792C73.608 20.376 74.104 19.808 74.456 19.088C74.808 18.352 74.984 17.504 74.984 16.544C74.984 15.584 74.8 14.744 74.432 14.024C74.08 13.304 73.584 12.752 72.944 12.368C72.304 11.968 71.56 11.768 70.712 11.768C69.944 11.768 69.232 11.944 68.576 12.296C67.92 12.632 67.392 13.128 66.992 13.784C66.608 14.424 66.416 15.2 66.416 16.112V17.216C66.416 18.096 66.616 18.848 67.016 19.472C67.416 20.096 67.944 20.576 68.6 20.912C69.256 21.248 69.96 21.416 70.712 21.416ZM86.2029 23.432C85.0829 23.432 84.1149 23.24 83.2989 22.856C82.4829 22.472 81.8189 21.968 81.3069 21.344C80.7949 20.704 80.4109 19.992 80.1549 19.208C79.9149 18.424 79.7949 17.624 79.7949 16.808V16.376C79.7949 15.544 79.9149 14.736 80.1549 13.952C80.4109 13.168 80.7949 12.464 81.3069 11.84C81.8189 11.2 82.4669 10.696 83.2509 10.328C84.0509 9.944 84.9869 9.752 86.0589 9.752C87.4509 9.752 88.5949 10.056 89.4909 10.664C90.4029 11.256 91.0749 12.024 91.5069 12.968C91.9549 13.912 92.1789 14.92 92.1789 15.992V17.024H80.8029V15.296H90.4989L89.9709 16.232C89.9709 15.32 89.8269 14.536 89.5389 13.88C89.2509 13.208 88.8189 12.688 88.2429 12.32C87.6669 11.952 86.9389 11.768 86.0589 11.768C85.1469 11.768 84.3869 11.976 83.7789 12.392C83.1869 12.808 82.7389 13.376 82.4349 14.096C82.1469 14.816 82.0029 15.648 82.0029 16.592C82.0029 17.504 82.1469 18.328 82.4349 19.064C82.7389 19.784 83.2029 20.36 83.8269 20.792C84.4509 21.208 85.2429 21.416 86.2029 21.416C87.2109 21.416 88.0269 21.192 88.6509 20.744C89.2909 20.296 89.6749 19.776 89.8029 19.184H91.9629C91.7869 20.064 91.4349 20.824 90.9069 21.464C90.3789 22.104 89.7149 22.592 88.9149 22.928C88.1149 23.264 87.2109 23.432 86.2029 23.432ZM103.202 23V19.16H102.818V14.72C102.818 13.84 102.586 13.176 102.122 12.728C101.674 12.28 101.01 12.056 100.13 12.056C99.6342 12.056 99.1222 12.064 98.5942 12.08C98.0662 12.096 97.5622 12.112 97.0822 12.128C96.6022 12.144 96.1862 12.168 95.8342 12.2V10.184C96.1862 10.152 96.5542 10.128 96.9382 10.112C97.3382 10.08 97.7462 10.064 98.1622 10.064C98.5782 10.048 98.9782 10.04 99.3622 10.04C100.674 10.04 101.746 10.2 102.578 10.52C103.41 10.824 104.026 11.328 104.426 12.032C104.826 12.736 105.026 13.688 105.026 14.888V23H103.202ZM99.0022 23.336C98.0422 23.336 97.2102 23.176 96.5062 22.856C95.8182 22.52 95.2822 22.04 94.8982 21.416C94.5302 20.792 94.3462 20.04 94.3462 19.16C94.3462 18.248 94.5462 17.488 94.9462 16.88C95.3622 16.272 95.9622 15.816 96.7462 15.512C97.5302 15.192 98.4742 15.032 99.5782 15.032H103.058V16.76H99.4822C98.5542 16.76 97.8422 16.984 97.3462 17.432C96.8502 17.88 96.6022 18.456 96.6022 19.16C96.6022 19.864 96.8502 20.432 97.3462 20.864C97.8422 21.296 98.5542 21.512 99.4822 21.512C100.026 21.512 100.546 21.416 101.042 21.224C101.538 21.016 101.946 20.68 102.266 20.216C102.602 19.736 102.786 19.08 102.818 18.248L103.442 19.16C103.362 20.072 103.138 20.84 102.77 21.464C102.418 22.072 101.922 22.536 101.282 22.856C100.658 23.176 99.8982 23.336 99.0022 23.336ZM109.255 23V10.184H111.079V15.68H110.791C110.791 14.432 110.951 13.376 111.271 12.512C111.607 11.632 112.103 10.96 112.759 10.496C113.415 10.032 114.247 9.8 115.255 9.8H115.351C116.359 9.8 117.191 10.032 117.847 10.496C118.519 10.96 119.015 11.632 119.335 12.512C119.655 13.376 119.815 14.432 119.815 15.68H119.143C119.143 14.432 119.311 13.376 119.647 12.512C119.983 11.632 120.479 10.96 121.135 10.496C121.807 10.032 122.647 9.8 123.655 9.8H123.751C124.759 9.8 125.599 10.032 126.271 10.496C126.943 10.96 127.439 11.632 127.759 12.512C128.095 13.376 128.263 14.432 128.263 15.68V23H125.959V15.176C125.959 14.136 125.703 13.336 125.191 12.776C124.679 12.2 123.967 11.912 123.055 11.912C122.111 11.912 121.351 12.216 120.775 12.824C120.199 13.416 119.911 14.248 119.911 15.32V23H117.607V15.176C117.607 14.136 117.351 13.336 116.839 12.776C116.327 12.2 115.615 11.912 114.703 11.912C113.759 11.912 112.999 12.216 112.423 12.824C111.847 13.416 111.559 14.248 111.559 15.32V23H109.255Z" fill="#388EE4"/>
</svg>
