<svg width="15" height="13" viewBox="0 0 15 13" fill="none" xmlns="http://www.w3.org/2000/svg">
<path d="M11.1869 3.97329C10.9169 3.81899 10.5697 3.81899 10.2611 3.97329L8.10089 5.24629L6.63502 6.05638L4.51335 7.32938C4.24332 7.48368 3.89614 7.48368 3.58754 7.32938L1.92878 6.32641C1.65875 6.17211 1.46588 5.8635 1.46588 5.51632V3.58754C1.46588 3.27893 1.62018 2.97033 1.92878 2.77745L3.58754 1.81306C3.85757 1.65875 4.20475 1.65875 4.51335 1.81306L6.17211 2.81602C6.44214 2.97033 6.63502 3.27893 6.63502 3.62611V4.89911L8.10089 4.05045V2.73887C8.10089 2.43027 7.94659 2.12166 7.63798 1.92878L4.55193 0.115727C4.2819 -0.0385757 3.93472 -0.0385757 3.62611 0.115727L0.462908 1.96736C0.154303 2.12166 0 2.43027 0 2.73887V6.36498C0 6.67359 0.154303 6.9822 0.462908 7.17507L3.58754 8.98813C3.85757 9.14243 4.20475 9.14243 4.51335 8.98813L6.63502 7.75371L8.10089 6.90504L10.2226 5.67062C10.4926 5.51632 10.8398 5.51632 11.1484 5.67062L12.8071 6.63502C13.0772 6.78932 13.27 7.09792 13.27 7.4451V9.37389C13.27 9.68249 13.1157 9.9911 12.8071 10.184L11.1869 11.1484C10.9169 11.3027 10.5697 11.3027 10.2611 11.1484L8.60237 10.184C8.33234 10.0297 8.13947 9.72107 8.13947 9.37389V8.13947L6.67359 8.98813V10.2611C6.67359 10.5697 6.82789 10.8783 7.1365 11.0712L10.2611 12.8843C10.5312 13.0386 10.8783 13.0386 11.1869 12.8843L14.3116 11.0712C14.5816 10.9169 14.7745 10.6083 14.7745 10.2611V6.59644C14.7745 6.28783 14.6202 5.97923 14.3116 5.78635L11.1869 3.97329Z" fill="#8247E5"/>
</svg>
