<svg width="10" height="11" viewBox="0 0 10 11" fill="none" xmlns="http://www.w3.org/2000/svg">
<path d="M6.7598 6.42936C6.7598 5.50011 6.1998 5.18161 5.0798 5.04861C4.28005 4.9423 4.12037 4.73011 4.12037 4.35823C4.12037 3.98636 4.38724 3.74748 4.92012 3.74748C5.40005 3.74748 5.66693 3.90673 5.79993 4.3053C5.81379 4.34384 5.83912 4.3772 5.87252 4.4009C5.90592 4.42461 5.94579 4.4375 5.98674 4.43786H6.4133C6.43794 4.43852 6.46245 4.43416 6.48536 4.42506C6.50826 4.41596 6.52908 4.40231 6.54655 4.38492C6.56402 4.36753 6.57777 4.34678 6.58698 4.32392C6.59619 4.30106 6.60066 4.27656 6.60011 4.25192V4.22567C6.54798 3.93732 6.40208 3.67425 6.18507 3.47733C5.96807 3.28042 5.6921 3.16069 5.40005 3.13673V2.49973C5.40005 2.39342 5.31999 2.3138 5.18699 2.28711H4.78668C4.68037 2.28711 4.6003 2.36673 4.57361 2.49973V3.11048C3.77343 3.21636 3.26724 3.74748 3.26724 4.41161C3.26724 5.28748 3.80012 5.63267 4.92012 5.76567C5.66693 5.89823 5.90668 6.05792 5.90668 6.48273C5.90668 6.90711 5.53349 7.19936 5.02687 7.19936C4.33343 7.19936 4.09368 6.90755 4.01362 6.50898C3.98737 6.40311 3.90687 6.34973 3.8268 6.34973H3.37355C3.34895 6.34914 3.32448 6.35353 3.30163 6.36266C3.27878 6.37179 3.25801 6.38546 3.24059 6.40284C3.22317 6.42022 3.20945 6.44095 3.20027 6.46378C3.19109 6.48661 3.18664 6.51107 3.18718 6.53567V6.56192C3.29349 7.22605 3.72049 7.7038 4.6003 7.8368V8.47423C4.6003 8.58011 4.68037 8.66017 4.81337 8.68642H5.21368C5.31999 8.68642 5.40005 8.6068 5.42674 8.47423V7.83636C6.22693 7.7038 6.7598 7.14598 6.7598 6.42892V6.42936Z" fill="white"/>
<path d="M3.63995 9.21744C1.56007 8.47369 0.493448 6.16369 1.26695 4.11925C1.66682 3.00362 2.54664 2.15444 3.63995 1.75587C3.7467 1.70294 3.79964 1.62331 3.79964 1.49031V1.11844C3.79964 1.01256 3.7467 0.932938 3.63995 0.90625C3.61326 0.90625 3.55989 0.90625 3.5332 0.9325C2.93314 1.11989 2.37607 1.42413 1.89407 1.8277C1.41207 2.23127 1.01466 2.7262 0.72473 3.28399C0.434795 3.84178 0.258061 4.45141 0.204702 5.07778C0.151343 5.70415 0.222414 6.33489 0.413823 6.93369C0.893323 8.42119 2.04001 9.56306 3.5332 10.0408C3.63995 10.0938 3.7467 10.0408 3.77295 9.9345C3.79964 9.90825 3.79964 9.88112 3.79964 9.82819V9.45631C3.79964 9.37669 3.72001 9.27081 3.63995 9.21744ZM6.4662 0.932937C6.35945 0.879562 6.2527 0.932937 6.22645 1.03881C6.19976 1.0655 6.19976 1.09219 6.19976 1.14513V1.517C6.19976 1.62331 6.27939 1.72919 6.35945 1.78256C8.43932 2.52631 9.50595 4.83631 8.73245 6.88075C8.33257 7.99638 7.45276 8.84556 6.35945 9.24413C6.2527 9.29706 6.19976 9.37669 6.19976 9.50969V9.88156C6.19976 9.98744 6.2527 10.0671 6.35945 10.0938C6.38614 10.0938 6.43951 10.0938 6.4662 10.0675C7.06626 9.88011 7.62333 9.57587 8.10533 9.1723C8.58732 8.76873 8.98473 8.2738 9.27466 7.71601C9.5646 7.15823 9.74133 6.54859 9.79469 5.92222C9.84805 5.29585 9.77698 4.66511 9.58557 4.06631C9.10607 2.55256 7.9327 1.41069 6.4662 0.932937Z" fill="white"/>
</svg>
