<svg width="14" height="15" viewBox="0 0 14 15" fill="none" xmlns="http://www.w3.org/2000/svg">
<path d="M7 14.5C10.866 14.5 14 11.366 14 7.5C14 3.63401 10.866 0.5 7 0.5C3.13401 0.5 0 3.63401 0 7.5C0 11.366 3.13401 14.5 7 14.5Z" fill="#26A17B"/>
<path fill-rule="evenodd" clip-rule="evenodd" d="M7.84183 8.10515V8.10427C7.7937 8.10777 7.54564 8.12265 6.9922 8.12265C6.55033 8.12265 6.23926 8.10952 6.12989 8.10427V8.10559C4.42889 8.03077 3.15926 7.73459 3.15926 7.38021C3.15926 7.02627 4.42889 6.73009 6.12989 6.65396V7.81071C6.24101 7.81859 6.55951 7.8374 6.99964 7.8374C7.5277 7.8374 7.79239 7.81552 7.84183 7.81115V6.65484C9.53933 6.73052 10.8059 7.02671 10.8059 7.38021C10.8059 7.73459 9.53933 8.0299 7.84183 8.10515ZM7.84183 6.53452V5.4994H10.2105V3.9209H3.76126V5.4994H6.12989V6.53409C4.20489 6.62246 2.7572 7.00396 2.7572 7.46071C2.7572 7.91746 4.20489 8.29852 6.12989 8.38734V11.7045H7.84183V8.38646C9.76376 8.29809 11.208 7.91702 11.208 7.46071C11.208 7.0044 9.76376 6.62334 7.84183 6.53452Z" fill="white"/>
</svg>
