<svg width="66" height="56" viewBox="0 0 66 56" fill="none" xmlns="http://www.w3.org/2000/svg">
<path d="M54.7154 31.4304C54.1855 30.9111 54.1801 30.06 54.6994 29.53C55.2186 29 56.0698 28.9947 56.5998 29.5139L60.2988 33.1648C60.8288 33.6841 60.8342 34.5353 60.3149 35.0652C59.7956 35.5952 58.9445 35.6005 58.4145 35.0813L54.7154 31.4304ZM13.4261 42.4313C12.8159 42.4313 12.3234 41.7567 12.3234 40.9216C12.3234 40.0865 12.8159 39.412 13.4261 39.412H40.674C41.2789 39.412 41.7767 40.0865 41.7767 40.9216C41.7767 41.7567 41.2842 42.4313 40.674 42.4313H13.4261ZM8.5654 48.7748C7.81595 48.7748 7.20569 48.1003 7.20569 47.2652C7.20569 46.4301 7.81595 45.7556 8.5654 45.7556H30.0639C30.8134 45.7556 31.4236 46.4301 31.4236 47.2652C31.4236 48.1003 30.8134 48.7748 30.0639 48.7748H8.5654ZM36.8197 48.7748C36.0702 48.7748 35.4599 48.1003 35.4599 47.2652C35.4599 46.4301 36.0702 45.7556 36.8197 45.7556H41.659C42.4084 45.7556 43.0187 46.4301 43.0187 47.2652C43.0187 48.1003 42.4084 48.7748 41.659 48.7748H36.8197ZM44.9512 52.6613C45.6953 52.6666 46.3002 53.3411 46.3002 54.1709C46.2948 55.0006 45.6899 55.6698 44.9405 55.6698L25.7117 55.5627C24.9676 55.5573 24.3627 54.8828 24.3627 54.0531C24.3681 53.2233 24.973 52.5542 25.7224 52.5542L44.9512 52.6613ZM19.4913 52.5435C20.2408 52.5435 20.851 53.218 20.851 54.0531C20.851 54.8882 20.2408 55.5627 19.4913 55.5627H15.6638C14.9143 55.5627 14.304 54.8882 14.304 54.0531C14.304 53.218 14.9143 52.5435 15.6638 52.5435H19.4913ZM6.07081 40.7557C6.70784 41.291 6.79349 42.2385 6.25817 42.8756C5.72285 43.5126 4.77533 43.5983 4.1383 43.0629C3.45308 42.4901 2.84817 41.837 2.33962 41.1304C0.974547 39.2461 0.235804 36.9442 0.219744 34.653C0.203685 32.3351 0.926368 30.0278 2.4788 28.1649C2.982 27.56 3.57621 27.0033 4.25607 26.5108C5.04834 25.938 5.95303 25.4508 6.97014 25.0547C7.67677 24.7817 8.42622 24.5515 9.22385 24.3695C10.1232 20.7935 12.045 18.0366 14.5128 16.1202C16.8201 14.3322 19.5984 13.2883 22.4623 13.01C25.3102 12.737 28.2438 13.2187 30.8722 14.4821C31.702 14.8782 32.4996 15.3547 33.2544 15.9061C34.1645 14.7926 35.2833 13.8611 36.5573 13.1652C38.1526 12.2926 39.9727 11.8001 41.9052 11.8001C44.9887 11.8001 47.7777 13.0474 49.8012 15.071C51.8194 17.0891 53.072 19.8835 53.072 22.9669C53.072 24.3267 52.8258 25.6275 52.3814 26.8373C51.9157 28.09 51.2359 29.2409 50.3793 30.2313C50.3365 30.2794 50.2937 30.3276 50.2455 30.3651C50.4436 31.3661 50.5399 32.3993 50.5292 33.4271C50.5025 36.0074 49.8012 38.5823 48.3826 40.472C47.8847 41.1358 46.9426 41.2696 46.2788 40.7718C45.615 40.2739 45.4812 39.3317 45.979 38.6679C47.0015 37.3082 47.5047 35.3757 47.5261 33.4004C47.5475 31.3287 47.0443 29.2409 46.0593 27.726C45.7756 27.2924 45.4651 26.8962 45.1385 26.5429C43.6611 24.953 41.7821 24.2571 39.8389 24.241C38.4256 24.2303 36.9642 24.5729 35.5724 25.1885C35.2619 25.3384 34.9567 25.5044 34.6516 25.681C33.7309 26.2217 32.8208 26.8802 31.8947 27.6403L29.914 25.3705C30.5992 24.7335 31.3433 24.1554 32.1249 23.6468C32.7512 23.24 33.399 22.8759 34.0681 22.5655C34.3411 22.4316 34.6141 22.3032 34.8925 22.18C33.5863 19.8674 31.7073 18.2079 29.5768 17.1855C27.4462 16.163 25.064 15.7722 22.7461 15.9971C20.4388 16.2219 18.2012 17.057 16.349 18.4917C14.2077 20.1512 12.5803 22.635 11.9593 25.9166L11.7666 26.9444L10.7442 27.1264C9.74311 27.3031 8.84377 27.544 8.05685 27.8491C7.29669 28.1435 6.61683 28.5075 6.02263 28.9358C5.54619 29.2784 5.13935 29.6638 4.79139 30.0814C3.71539 31.3715 3.21754 32.9882 3.22825 34.6263C3.23896 36.2858 3.77963 37.9667 4.78068 39.3478C5.15005 39.8724 5.58366 40.3435 6.07081 40.7557ZM35.4974 17.9242C36.4128 18.9306 37.2158 20.0869 37.8796 21.3985C38.5327 21.2967 39.1911 21.2432 39.8389 21.2486C42.5851 21.2646 45.2403 22.2496 47.3334 24.5033C47.7723 24.9744 48.1845 25.5044 48.57 26.0986C48.7359 26.3555 48.8965 26.6232 49.041 26.9016C49.2338 26.5483 49.4051 26.1789 49.5442 25.7988C49.8708 24.9209 50.0474 23.9627 50.0474 22.9616C50.0474 20.7132 49.1374 18.6737 47.6599 17.2015C46.1878 15.7294 44.1482 14.814 41.8999 14.814C40.4759 14.814 39.1483 15.1727 37.992 15.8043C37.0284 16.3397 36.1773 17.0624 35.4974 17.9242ZM27.7192 8.26166C27.1892 7.7424 27.1839 6.89124 27.7031 6.36127C28.2224 5.8313 29.0736 5.82595 29.6035 6.34521L33.3026 9.9961C33.8326 10.5154 33.8379 11.3665 33.3187 11.8965C32.7994 12.4265 31.9482 12.4318 31.4183 11.9126L27.7192 8.26166ZM42.2639 1.82709C42.2585 1.08835 42.8581 0.483434 43.6022 0.483434C44.3409 0.478081 44.9458 1.07764 44.9458 1.82174L44.978 7.01971C44.9833 7.75846 44.3837 8.36337 43.6396 8.36337C42.9009 8.36872 42.296 7.76916 42.296 7.02507L42.2639 1.82709ZM57.2422 6.92871C57.7721 6.40945 58.6233 6.4148 59.1426 6.94477C59.6618 7.47474 59.6565 8.3259 59.1265 8.84516L55.4274 12.4961C54.8975 13.0153 54.0463 13.01 53.527 12.48C53.0078 11.95 53.0131 11.0989 53.5431 10.5796L57.2422 6.92871ZM64.651 21.179C65.3897 21.1736 65.9947 21.7732 65.9947 22.5173C66 23.256 65.4005 23.8609 64.6564 23.8609L59.4584 23.8931C58.7197 23.8984 58.1147 23.2988 58.1147 22.5548C58.1094 21.816 58.7089 21.2111 59.453 21.2111L64.651 21.179Z" fill="#767676"/>
</svg>
